HIERARCHY
ROOT Hips
{
	OFFSET 0.000000 0.000000 0.000000
	CHANNELS 6 Xposition Yposition Zposition Zrotation Yrotation Xrotation 
	JOINT LHipJoint
	{
		OFFSET 0.000000 0.000000 0.000000
		CHANNELS 3 Zrotation Yrotation Xrotation
		JOINT LeftUpLeg
		{
			OFFSET 1.363060 -1.794630 0.839290
			CHANNELS 3 Zrotation Yrotation Xrotation
			JOINT LeftLeg
			{
				OFFSET 2.448110 -6.726130 0.000000
				CHANNELS 3 Zrotation Yrotation Xrotation
				JOINT LeftFoot
				{
					OFFSET 2.562200 -7.039590 0.000000
					CHANNELS 3 Zrotation Yrotation Xrotation
					JOINT LeftToeBase
					{
						OFFSET 0.157640 -0.433110 2.322550
						CHANNELS 3 Zrotation Yrotation Xrotation
						End Site
						{
							OFFSET 0.000000 0.000000 0.000000
						}
					}
				}
			}
		}
	}
	JOINT RHipJoint
	{
		OFFSET 0.000000 0.000000 0.000000
		CHANNELS 3 Zrotation Yrotation Xrotation
		JOINT RightUpLeg
		{
			OFFSET -1.305520 -1.794630 0.839290
			CHANNELS 3 Zrotation Yrotation Xrotation
			JOINT RightLeg
			{
				OFFSET -2.542530 -6.985550 0.000000
				CHANNELS 3 Zrotation Yrotation Xrotation
				JOINT RightFoot
				{
					OFFSET -2.568260 -7.056230 0.000000
					CHANNELS 3 Zrotation Yrotation Xrotation
					JOINT RightToeBase
					{
						OFFSET -0.164730 -0.452590 2.363150
						CHANNELS 3 Zrotation Yrotation Xrotation
						End Site
						{
							OFFSET 0.000000 0.000000 0.000000
						}
					}
				}
			}
		}
	}
	JOINT LowerBack
	{
		OFFSET 0.000000 0.000000 0.000000
		CHANNELS 3 Zrotation Yrotation Xrotation
		JOINT Spine
		{
			OFFSET 0.028270 2.035590 -0.193380
			CHANNELS 3 Zrotation Yrotation Xrotation
			JOINT Spine1
			{
				OFFSET 0.056720 2.048850 -0.042750
				CHANNELS 3 Zrotation Yrotation Xrotation
				JOINT Neck
				{
					OFFSET 0.000000 0.000000 0.000000
					CHANNELS 3 Zrotation Yrotation Xrotation
					JOINT Neck1
					{
						OFFSET -0.054170 1.746240 0.172020
						CHANNELS 3 Zrotation Yrotation Xrotation
						JOINT Head
						{
							OFFSET 0.104070 1.761360 -0.123970
							CHANNELS 3 Zrotation Yrotation Xrotation
							End Site
							{
								OFFSET 0.000000 0.000000 0.000000
							}
						}
					}
				}
				JOINT LeftShoulder
				{
					OFFSET 0.000000 0.000000 0.000000
					CHANNELS 3 Zrotation Yrotation Xrotation
					JOINT LeftArm
					{
						OFFSET 3.362410 1.200890 -0.311210
						CHANNELS 3 Zrotation Yrotation Xrotation
						JOINT LeftForeArm
						{
							OFFSET 4.983000 -0.000000 -0.000000
							CHANNELS 3 Zrotation Yrotation Xrotation
							JOINT LeftHand
							{
								OFFSET 3.483560 -0.000000 -0.000000
								CHANNELS 3 Zrotation Yrotation Xrotation
								JOINT LeftFingerBase
								{
									OFFSET 0.000000 0.000000 0.000000
									CHANNELS 3 Zrotation Yrotation Xrotation
									JOINT LeftHandIndex1
									{
										OFFSET 0.715260 -0.000000 -0.000000
										CHANNELS 3 Zrotation Yrotation Xrotation
										End Site
										{
											OFFSET 0.000000 0.000000 0.000000
										}
									}
								}
								JOINT LThumb
								{
									OFFSET 0.000000 0.000000 0.000000
									CHANNELS 3 Zrotation Yrotation Xrotation
									End Site
									{
										OFFSET 0.000000 0.000000 0.000000
									}
								}
							}
						}
					}
				}
				JOINT RightShoulder
				{
					OFFSET 0.000000 0.000000 0.000000
					CHANNELS 3 Zrotation Yrotation Xrotation
					JOINT RightArm
					{
						OFFSET -3.136600 1.374050 -0.404650
						CHANNELS 3 Zrotation Yrotation Xrotation
						JOINT RightForeArm
						{
							OFFSET -5.241900 -0.000000 -0.000000
							CHANNELS 3 Zrotation Yrotation Xrotation
							JOINT RightHand
							{
								OFFSET -3.444170 -0.000000 -0.000000
								CHANNELS 3 Zrotation Yrotation Xrotation
								JOINT RightFingerBase
								{
									OFFSET 0.000000 0.000000 0.000000
									CHANNELS 3 Zrotation Yrotation Xrotation
									JOINT RightHandIndex1
									{
										OFFSET -0.622530 -0.000000 -0.000000
										CHANNELS 3 Zrotation Yrotation Xrotation
										End Site
										{
											OFFSET 0.000000 0.000000 0.000000
										}
									}
								}
								JOINT RThumb
								{
									OFFSET 0.000000 0.000000 0.000000
									CHANNELS 3 Zrotation Yrotation Xrotation
									End Site
									{
										OFFSET 0.000000 0.000000 0.000000
									}
								}
							}
						}
					}
				}
			}
		}
	}
}
MOTION
Frames: 9
Frame Time: 0.033333
-1.780049 18.385489 5.228303 90.558471 -18.782033 -36.861243 -81.061487 -47.304687 41.985853 11.026710 11.292282 -50.805818 -76.404168 68.302420 -58.863901 12.878317 32.306562 0.683496 0.199686 -0.011469 -18.286006 38.446891 -9.714937 -105.376758 42.446944 -42.722202 -106.050059 102.926154 -59.386977 -116.764724 27.722770 -29.722503 -13.192612 0.974001 0.094007 -52.394431 -117.676000 60.872438 -41.287519 -177.793643 71.181632 -173.301762 -157.580050 69.333228 -162.847777 4.145090 -14.616746 2.483233 11.518170 -11.162475 15.264996 0.067267 -0.108814 0.100673 127.272672 64.980255 50.196987 99.292330 74.194681 68.152994 -27.651260 7.578230 -114.462629 -1.141956 10.930217 10.844688 -7.967942 -0.689632 -8.705294 -0.078567 -0.029636 0.014066 0.111374 0.015841 -0.033014 58.374733 71.914956 91.497598 46.527402 56.060216 145.442415 -19.492302 -36.051728 84.556487 -8.422751 5.525378 16.398898 8.518768 -15.779896 12.646033 -0.111127 0.134556 -0.063582 -0.056573 -0.051007 -0.095623 
-1.751761 18.840599 6.247111 89.623130 -18.572165 -37.366657 -81.852693 -47.439107 43.119761 10.675780 9.457361 -52.525994 -70.507412 70.305862 -69.109352 10.011634 30.471572 -1.577230 0.260455 0.027323 -21.743719 40.350101 -9.875187 -108.612918 39.234624 -37.589571 -105.096066 98.973117 -62.758044 -119.765403 33.685194 -39.842505 -8.263711 0.612228 0.030558 -57.989149 -120.351014 61.949263 -44.455929 -176.216703 71.092495 -172.686764 -154.858297 67.796748 -161.910992 6.347777 -16.590788 3.237186 10.316369 -13.435615 12.395002 0.128183 -0.047263 0.046873 129.071517 65.899557 56.065243 112.243659 73.545927 83.669784 -27.576371 5.367151 -109.995008 4.612398 14.784895 19.321746 -7.141814 -4.139880 -3.195633 -0.125286 -0.062204 0.098069 0.067621 0.118026 -0.041650 54.779742 70.737278 86.833073 36.763563 55.854904 137.728503 -29.625860 -34.610580 90.446992 -10.486821 9.045913 11.748452 8.032372 -17.917056 27.223269 -0.097684 0.050182 -0.063068 -0.115538 -0.128998 -0.076027 
-1.709109 19.104380 7.270211 88.680205 -18.264297 -38.197544 -82.731148 -47.667852 44.350810 10.202436 7.945275 -53.773578 -61.452119 71.218802 -73.172469 9.260932 25.323345 -2.195839 0.356756 0.043534 -24.467569 40.833249 -7.845160 -109.598413 36.394272 -33.458955 -105.813688 95.564994 -62.813166 -117.671162 30.775156 -44.162532 -1.283772 0.257114 -0.039367 -62.231688 -121.688320 63.694656 -46.255254 -175.585607 70.545552 -171.624928 -150.249807 66.990100 -158.611279 7.213578 -15.116545 3.834375 10.613545 -13.230612 9.933467 0.093678 -0.143860 0.129117 128.907805 65.920603 58.498365 129.368871 70.670679 102.080856 -26.212274 1.316615 -106.606886 20.283302 14.224294 26.617420 -7.486224 -11.122765 1.868889 -0.114239 -0.108992 0.102671 0.070396 0.054378 -0.091648 52.333060 68.167681 80.978465 29.721299 54.589092 137.027707 -34.828846 -32.842414 89.641107 1.567083 9.528077 16.056562 5.346558 -10.231700 35.245609 -0.099756 0.070304 -0.070511 -0.035886 -0.129286 -0.062937 
-1.661943 19.160414 8.278569 87.561852 -18.133297 -38.475647 -83.875679 -48.609894 44.956628 10.138828 6.712590 -53.214375 -55.112103 71.111022 -75.797212 6.896205 18.350576 0.386752 0.373292 0.048690 -26.592314 40.211786 -5.723737 -108.812185 33.622989 -31.582261 -106.062534 94.835698 -60.242953 -114.652326 28.617354 -46.293079 4.344482 -0.118236 -0.146540 -65.904192 -124.571527 65.817834 -49.686172 -176.331882 69.829911 -173.278383 -148.453740 67.277344 -158.219697 7.850339 -14.993177 5.826845 9.970624 -12.517467 8.172697 0.079662 -0.139429 0.141420 126.855929 66.127770 57.656969 140.915770 67.732423 115.037883 -23.334436 -1.611559 -104.591581 29.323632 5.917538 31.043224 -10.112469 -15.745373 3.653969 -0.117192 -0.098440 0.123562 0.064970 0.093578 -0.094339 48.359179 65.101012 74.720638 26.235385 53.508886 138.148857 -36.967579 -32.662954 88.571558 9.408353 13.454683 15.479271 1.441306 -3.606369 44.305126 -0.090413 0.076511 -0.108200 -0.138258 -0.088280 -0.082266 
-1.598199 19.027214 9.249242 86.559220 -18.114147 -38.862516 -85.052269 -50.684582 44.692007 10.536123 6.470868 -50.027540 -52.600257 70.611576 -75.685057 7.159228 9.599587 2.036803 0.494157 0.154278 -26.959964 38.445060 -4.124325 -106.342992 31.939088 -30.661604 -107.103290 93.322776 -56.017576 -109.616603 24.541587 -49.261683 9.049908 -0.362573 -0.180977 -68.046775 -124.612440 67.141313 -50.084323 -174.674138 68.454631 -172.744582 -147.034665 67.811824 -157.579047 11.659713 -13.814995 6.298972 5.050233 -14.233518 7.880200 0.062286 -0.184853 0.126115 126.212507 65.834425 55.806396 146.514214 64.941192 119.777938 -18.322340 -2.009082 -101.157022 33.557424 -1.805632 30.138862 -8.349679 -19.909286 7.899079 -0.100363 -0.149956 0.125303 0.106873 0.071241 -0.088882 45.998829 63.479079 70.870609 25.389095 51.496558 140.534355 -35.766296 -34.660891 86.122416 16.678344 13.066590 15.291157 -1.808432 0.650061 50.531142 -0.106504 0.108130 -0.128503 -0.076014 -0.102857 -0.089106 
-1.511249 18.708433 10.187871 86.107026 -17.978750 -38.657844 -85.783604 -54.115386 43.593950 9.563397 7.721965 -46.235514 -52.704137 70.078815 -72.282204 2.462363 4.750222 3.073719 0.648900 0.110235 -26.045547 36.602692 -2.426478 -105.355674 31.306061 -31.050303 -107.091034 96.063169 -51.250750 -107.222793 19.005301 -50.282812 14.260060 -0.612881 -0.250330 -69.091969 -125.945863 69.070375 -52.096988 -177.891844 69.394496 -175.527809 -145.660319 67.770762 -155.303048 12.456056 -12.364807 6.445010 4.742406 -11.749051 8.109751 0.130085 -0.064616 0.051500 128.361638 65.568892 55.113549 147.836865 63.576942 122.054368 -15.512368 -0.489252 -98.034361 32.440737 -4.998435 23.303849 -6.471879 -23.422138 12.543868 -0.089978 -0.088330 0.059670 0.055273 0.088518 -0.137752 43.033315 63.200772 67.191797 27.505593 48.805935 143.525880 -32.526097 -37.243272 84.122781 22.347451 8.046128 20.276017 -6.608620 8.364794 47.319207 -0.076827 0.120511 -0.121906 -0.086678 -0.096736 -0.079498 
-1.437422 18.203642 11.112918 85.544660 -17.835217 -38.096479 -86.111788 -55.269932 43.123446 9.348063 7.934781 -44.010863 -61.159348 70.646157 -74.911315 -0.041568 5.048285 4.709677 0.800510 0.110695 -26.808129 35.885199 -2.820417 -104.596819 32.752490 -31.044058 -106.502483 98.663844 -47.337822 -104.794855 16.850831 -50.906302 14.080546 -1.093429 -0.310942 -69.065265 -125.080896 69.641033 -51.279577 -178.332292 69.684997 -175.933496 -145.370402 67.681089 -155.359981 12.657637 -7.527291 6.152300 5.992867 -11.304942 6.170692 0.098422 -0.060859 0.132621 126.171142 66.400968 51.025578 146.154830 62.094690 120.175109 -17.542468 4.082486 -95.970995 28.421503 -0.560874 27.097840 -2.450178 -25.748064 10.840452 -0.086471 -0.104760 0.095707 0.133216 0.082803 -0.082163 40.943604 62.774780 65.088981 32.250992 46.134784 148.194521 -26.602965 -41.482149 81.717842 22.045122 7.681118 18.405299 -13.554937 12.607002 48.785039 -0.087277 0.066098 -0.083920 -0.077656 -0.064590 -0.111662 
-1.396329 17.554056 12.014768 85.088260 -17.641993 -36.915890 -85.581605 -55.082190 43.791853 7.416703 8.197696 -45.343925 -67.452519 71.142606 -74.963556 -0.758575 3.550125 1.462825 0.612038 0.074768 -27.014331 34.433084 -3.799772 -103.748949 37.317965 -31.810205 -107.230574 100.137737 -42.875387 -99.323976 18.173915 -49.484644 10.083513 -1.413145 -0.360524 -67.554695 -121.656723 69.272149 -48.065018 179.614281 70.849456 -176.689494 -143.715768 67.008034 -154.337792 11.338911 -2.005799 6.152044 10.289024 -13.151949 5.881235 0.081367 -0.104834 0.033249 124.919679 65.540347 47.100184 143.801732 61.768463 117.933667 -17.486959 8.908577 -93.529359 25.672173 1.873843 28.352313 -1.561752 -22.208280 11.091950 -0.123334 -0.101353 0.103478 0.080857 0.063504 -0.056635 42.894845 62.697389 67.141930 36.443303 42.170274 151.732022 -21.871887 -46.732485 80.140316 20.610534 6.998818 17.328338 -14.328933 24.954137 49.856598 -0.049694 0.096166 -0.029316 -0.141811 -0.031762 -0.083556 
-1.368449 16.915364 12.858347 83.960894 -16.684950 -35.471566 -85.360930 -53.916966 46.815252 4.499539 8.014803 -49.101682 -67.987522 71.400601 -68.910044 0.330179 -0.195172 -8.262869 0.081320 -0.026688 -27.149640 33.283483 -6.124678 -102.579607 42.985513 -32.660991 -108.158680 100.271552 -38.524702 -94.204860 21.228989 -47.654050 5.147723 -1.590478 -0.331683 -64.773266 -119.022311 68.781396 -44.852683 176.118837 70.709493 178.717787 -143.150707 67.588659 -153.550281 11.916362 1.360521 8.346452 14.990624 -16.509560 4.217626 0.089301 -0.066184 0.059657 124.376140 65.279862 43.893373 145.351050 62.633517 120.084022 -18.425383 13.589922 -91.505645 22.784032 10.354705 27.833165 -3.363897 -19.889700 11.051846 -0.080277 -0.065025 0.061379 0.042075 0.043964 -0.104281 44.350877 62.116991 70.471213 38.333465 39.255083 152.851534 -21.549866 -51.871971 82.492594 20.204310 11.397036 13.411897 -14.927015 30.118325 42.891134 -0.133822 0.113802 -0.072252 -0.044694 -0.091143 -0.058965 
